<svg width="30" height="30" viewBox="0 0 30 30" fill="none" xmlns="http://www.w3.org/2000/svg">
<path d="M27.187 15C27.187 21.7324 21.7308 27.1875 14.9971 27.1875C8.26333 27.1875 2.80719 21.7324 2.80719 15C2.80719 14.7949 2.81305 14.584 2.82477 14.3789C2.0043 13.5645 1.0842 12.4395 0.521586 11.0566C0.181676 12.3105 0 13.6348 0 15C0 23.2852 6.71616 30 15.0029 30C23.2897 30 30 23.2852 30 15C30 13.6348 29.8183 12.3105 29.4784 11.0566C28.9158 12.4453 27.9898 13.5645 27.1752 14.3789C27.187 14.584 27.1928 14.7891 27.1928 15H27.187ZM21.5609 3.45117C22.2465 3.09961 22.9967 2.88867 23.7703 2.83008C21.303 1.04883 18.2731 0 14.9971 0C11.721 0 8.69115 1.04883 6.22387 2.83008C6.99746 2.88867 7.74761 3.09961 8.43329 3.45117C9.24204 3.03516 10.1504 2.8125 11.0764 2.8125H11.2463C11.7679 2.8125 12.2778 2.88281 12.7584 3.01758C13.4851 2.88281 14.2352 2.8125 14.9971 2.8125C15.7589 2.8125 16.5091 2.88281 17.2358 3.01758C17.7164 2.88281 18.2262 2.8125 18.7478 2.8125H18.9178C19.8437 2.8125 20.7521 3.03516 21.5609 3.45117ZM21.807 17.7129C19.7675 18.334 17.4526 18.6855 14.9912 18.6855C12.5357 18.6855 10.2207 18.334 8.18715 17.7188C7.49561 17.5078 6.7982 18.0762 7.03848 18.7617C8.19887 22.0371 11.3225 24.3809 14.9971 24.3809C18.6716 24.3809 21.7953 22.0312 22.9557 18.7559C23.1959 18.0762 22.4985 17.502 21.807 17.7129ZM18.9178 5.625H18.7478C17.1948 5.625 15.9348 6.88477 15.9348 8.4375C15.9348 11.5664 19.8554 14.0449 21.1506 14.7773C21.4085 14.9238 21.7132 14.9238 21.9711 14.7773C23.2663 14.0449 27.187 11.5664 27.187 8.4375C27.187 6.88477 25.9269 5.625 24.3739 5.625H24.2039C23.4128 5.625 22.6509 5.94141 22.0942 6.49805L21.5609 7.03125L21.0275 6.49805C20.4708 5.94141 19.7089 5.625 18.9178 5.625ZM7.89998 6.49805C7.34323 5.94141 6.58136 5.625 5.79019 5.625H5.62024C4.0672 5.625 2.80719 6.88477 2.80719 8.4375C2.80719 11.5664 6.72788 14.0449 8.02305 14.7773C8.28091 14.9238 8.58566 14.9238 8.84352 14.7773C10.1387 14.0449 14.0594 11.5664 14.0594 8.4375C14.0594 6.88477 12.7994 5.625 11.2463 5.625H11.0764C10.2852 5.625 9.52334 5.94141 8.9666 6.49805L8.43329 7.03125L7.89998 6.49805Z" fill="black"/>
</svg>
