<svg width="30" height="30" viewBox="0 0 30 30" fill="none" xmlns="http://www.w3.org/2000/svg">
<path d="M14.0676 0.360387C14.6006 -0.120129 15.409 -0.120129 15.9421 0.360387L29.5323 12.5491C30.1123 13.0648 30.1591 13.9555 29.6378 14.5356C29.1164 15.1157 28.2319 15.1626 27.652 14.6411L27.1833 14.2192V26.2496C27.1833 28.3182 25.5021 30 23.4343 30H6.56367C4.49585 30 2.81464 28.3182 2.81464 26.2496V14.2192L2.34601 14.6411C1.76609 15.1568 0.881549 15.1099 0.3602 14.5356C-0.161149 13.9613 -0.108429 13.0706 0.465641 12.5491L14.0676 0.360387ZM15.0048 3.29622L5.63227 11.7052V26.2555C5.63227 26.7712 6.05404 27.1931 6.56953 27.1931H9.3813V21.0987C9.3813 18.7665 11.2675 16.8796 13.599 16.8796H16.4107C18.7422 16.8796 20.6284 18.7665 20.6284 21.0987V27.1931H23.4402C23.9556 27.1931 24.3774 26.7712 24.3774 26.2555V11.7052L15.0048 3.30208V3.29622ZM12.1931 27.1931H17.8166V21.0987C17.8166 20.3194 17.1898 19.6924 16.4107 19.6924H13.599C12.8199 19.6924 12.1931 20.3194 12.1931 21.0987V27.1931Z" fill="black"/>
</svg>
