<svg width="30" height="30" viewBox="0 0 30 30" fill="none" xmlns="http://www.w3.org/2000/svg">
<path d="M11.3958 1.40625C11.5724 0.590074 12.3435 0 13.2383 0H16.7584C17.6532 0 18.4243 0.590074 18.6009 1.40625L19.4545 5.26654C20.2845 5.59743 21.0615 6.02206 21.7679 6.5239L25.759 5.28309C26.6066 5.01838 27.5367 5.34926 27.9841 6.07721L29.7442 8.93382C30.1915 9.66177 30.0326 10.5772 29.3615 11.1342L26.224 13.7482C26.277 14.1562 26.3005 14.5754 26.3005 15C26.3005 15.4246 26.2711 15.8438 26.224 16.2518L29.3674 18.8713C30.0385 19.4283 30.1915 20.3493 29.7501 21.0717L27.99 23.9283C27.5426 24.6507 26.6125 24.9871 25.7649 24.7224L21.7738 23.4816C21.0615 23.9835 20.2845 24.4026 19.4604 24.739L18.6127 28.5938C18.4302 29.4154 17.6591 30 16.7702 30H13.25C12.3553 30 11.5841 29.4099 11.4075 28.5938L10.5599 24.739C9.72988 24.4081 8.95874 23.9835 8.24647 23.4816L4.23772 24.7224C3.39006 24.9871 2.45998 24.6562 2.0126 23.9283L0.252524 21.0717C-0.194855 20.3438 -0.0359176 19.4283 0.63515 18.8713L3.77857 16.2518C3.72559 15.8438 3.70204 15.4246 3.70204 15C3.70204 14.5754 3.73148 14.1562 3.77857 13.7482L0.63515 11.1287C-0.0359176 10.5717 -0.188968 9.65073 0.252524 8.92831L2.0126 6.07169C2.45998 5.34375 3.39006 5.01287 4.23772 5.27757L8.22881 6.51838C8.94108 6.01654 9.71811 5.59743 10.5422 5.26103L11.3958 1.40625ZM14.9983 19.4118C17.6002 19.4007 19.7017 17.421 19.6899 14.9835C19.6782 12.546 17.5649 10.5772 14.963 10.5882C12.3612 10.5993 10.2597 12.579 10.2714 15.0165C10.2832 17.454 12.3965 19.4228 14.9983 19.4118Z" fill="black"/>
</svg>
