<svg width="30" height="30" viewBox="0 0 30 30" fill="none" xmlns="http://www.w3.org/2000/svg">
<path d="M27.1875 15C27.1875 8.26758 21.7324 2.8125 15 2.8125C8.26758 2.8125 2.8125 8.26758 2.8125 15C2.8125 21.7324 8.26758 27.1875 15 27.1875C21.7324 27.1875 27.1875 21.7324 27.1875 15ZM0 15C0 6.71484 6.71484 0 15 0C23.2852 0 30 6.71484 30 15C30 23.2852 23.2852 30 15 30C6.71484 30 0 23.2852 0 15ZM10.3887 18.7148C11.2676 19.6289 12.7969 20.625 15 20.625C17.2031 20.625 18.7324 19.6289 19.6113 18.7148C20.1504 18.1523 21.041 18.1348 21.5977 18.6738C22.1543 19.2129 22.1777 20.1035 21.6387 20.6602C20.3437 22.0078 18.123 23.4375 15 23.4375C11.877 23.4375 9.65625 22.0078 8.36133 20.6602C7.82227 20.0977 7.83984 19.207 8.40234 18.6738C8.96484 18.1406 9.85547 18.1523 10.3887 18.7148ZM10.3125 10.5469C9.4043 10.5469 8.67188 11.2793 8.67188 12.1875V12.6562C8.67188 13.3008 8.14453 13.8281 7.5 13.8281C6.85547 13.8281 6.32812 13.3008 6.32812 12.6562V12.1875C6.32812 9.98438 8.10938 8.20312 10.3125 8.20312C12.5156 8.20312 14.2969 9.98438 14.2969 12.1875V12.6562C14.2969 13.3008 13.7695 13.8281 13.125 13.8281C12.4805 13.8281 11.9531 13.3008 11.9531 12.6562V12.1875C11.9531 11.2793 11.2207 10.5469 10.3125 10.5469ZM18.0469 12.1875V12.6562C18.0469 13.3008 17.5195 13.8281 16.875 13.8281C16.2305 13.8281 15.7031 13.3008 15.7031 12.6562V12.1875C15.7031 9.98438 17.4844 8.20312 19.6875 8.20312C21.8906 8.20312 23.6719 9.98438 23.6719 12.1875V12.6562C23.6719 13.3008 23.1445 13.8281 22.5 13.8281C21.8555 13.8281 21.3281 13.3008 21.3281 12.6562V12.1875C21.3281 11.2793 20.5957 10.5469 19.6875 10.5469C18.7793 10.5469 18.0469 11.2793 18.0469 12.1875Z" fill="#FBBF34"/>
</svg>
