<svg width="30" height="30" viewBox="0 0 30 30" fill="none" xmlns="http://www.w3.org/2000/svg">
<path d="M27.1875 15C27.1875 8.26758 21.7324 2.8125 15 2.8125C8.26758 2.8125 2.8125 8.26758 2.8125 15C2.8125 21.7324 8.26758 27.1875 15 27.1875C21.7324 27.1875 27.1875 21.7324 27.1875 15ZM0 15C0 6.71484 6.71484 0 15 0C23.2852 0 30 6.71484 30 15C30 23.2852 23.2852 30 15 30C6.71484 30 0 23.2852 0 15ZM10.3887 18.7148C11.2676 19.6289 12.7969 20.625 15 20.625C17.2031 20.625 18.7324 19.6289 19.6113 18.7148C20.1504 18.1523 21.041 18.1348 21.5977 18.6738C22.1543 19.2129 22.1777 20.1035 21.6387 20.6602C20.3438 22.0078 18.123 23.4375 15 23.4375C11.877 23.4375 9.65625 22.0078 8.36133 20.6602C7.82227 20.0977 7.83984 19.207 8.40234 18.6738C8.96484 18.1406 9.85547 18.1523 10.3887 18.7148ZM8.4375 12.1875C8.4375 11.1504 9.27539 10.3125 10.3125 10.3125C11.3496 10.3125 12.1875 11.1504 12.1875 12.1875C12.1875 13.2246 11.3496 14.0625 10.3125 14.0625C9.27539 14.0625 8.4375 13.2246 8.4375 12.1875ZM19.6875 10.3125C20.7246 10.3125 21.5625 11.1504 21.5625 12.1875C21.5625 13.2246 20.7246 14.0625 19.6875 14.0625C18.6504 14.0625 17.8125 13.2246 17.8125 12.1875C17.8125 11.1504 18.6504 10.3125 19.6875 10.3125Z" fill="black"/>
</svg>
