<svg width="60" height="60" viewBox="0 0 60 60" fill="none" xmlns="http://www.w3.org/2000/svg">
<path d="M46.7578 45.0234C44.168 40.5234 39.3047 37.5 33.75 37.5H26.25C20.6953 37.5 15.832 40.5234 13.2422 45.0234C17.3672 49.6172 23.3438 52.5 30 52.5C36.6562 52.5 42.6328 49.6055 46.7578 45.0234ZM0 30C0 13.4297 13.4297 0 30 0C46.5703 0 60 13.4297 60 30C60 46.5703 46.5703 60 30 60C13.4297 60 0 46.5703 0 30ZM30 31.875C34.6641 31.875 38.4375 28.1016 38.4375 23.4375C38.4375 18.7734 34.6641 15 30 15C25.3359 15 21.5625 18.7734 21.5625 23.4375C21.5625 28.1016 25.3359 31.875 30 31.875Z" fill="black"/>
</svg>
