<svg width="60" height="60" viewBox="0 0 60 60" fill="none" xmlns="http://www.w3.org/2000/svg">
<path d="M30 60C46.5703 60 60 46.5703 60 30C60 13.4297 46.5703 0 30 0C13.4297 0 0 13.4297 0 30C0 46.5703 13.4297 60 30 60ZM26.25 18.75C26.25 16.6758 27.9258 15 30 15C32.0742 15 33.75 16.6758 33.75 18.75C33.75 20.8242 32.0742 22.5 30 22.5C27.9258 22.5 26.25 20.8242 26.25 18.75ZM25.3125 26.25H30.9375C32.4961 26.25 33.75 27.5039 33.75 29.0625V39.375H34.6875C36.2461 39.375 37.5 40.6289 37.5 42.1875C37.5 43.7461 36.2461 45 34.6875 45H25.3125C23.7539 45 22.5 43.7461 22.5 42.1875C22.5 40.6289 23.7539 39.375 25.3125 39.375H28.125V31.875H25.3125C23.7539 31.875 22.5 30.6211 22.5 29.0625C22.5 27.5039 23.7539 26.25 25.3125 26.25Z" fill="black"/>
</svg>
