<svg width="55" height="55" viewBox="0 0 55 55" fill="none" xmlns="http://www.w3.org/2000/svg">
<path d="M27.5061 0C25.3327 0 23.5767 1.53613 23.5767 3.4375V3.78125C14.6126 5.37109 7.8589 12.3105 7.8589 20.625V22.9561C7.8589 28.123 5.84505 33.1396 2.1612 37.1787L0.957803 38.4893C0.331548 39.166 0 40.0039 0 40.874C0 42.9795 1.95244 44.6875 4.35923 44.6875H50.6408C53.0476 44.6875 55 42.9795 55 40.874C55 40.0039 54.6684 39.166 54.0422 38.4893L52.8388 37.1787C49.1672 33.1396 47.1534 28.123 47.1534 22.9561V20.625C47.1534 12.3105 40.3996 5.37109 31.4356 3.78125V3.4375C31.4356 1.53613 29.6796 0 27.5061 0ZM19.8928 49.8438C20.7647 52.8086 23.8468 55 27.5061 55C31.1654 55 34.2476 52.8086 35.1194 49.8438H19.8928Z" fill="black"/>
</svg>
