<svg width="24" height="24" viewBox="0 0 24 24" fill="none" xmlns="http://www.w3.org/2000/svg">
<path d="M16.541 0.99375L14.4363 3.09844L20.9003 9.5625L23.005 7.45781C23.6425 6.825 23.9988 5.9625 23.9988 5.0625C23.9988 4.1625 23.6425 3.3 23.005 2.66719L21.3316 0.99375C20.6988 0.35625 19.8363 0 18.9363 0C18.0363 0 17.1738 0.35625 16.541 0.99375ZM12.8472 4.6875L2.75971 14.7703C2.25815 15.2719 1.89252 15.9 1.70033 16.5844L0.0409576 22.575C-0.0668549 22.9641 0.0409575 23.3859 0.331582 23.6719C0.622207 23.9578 1.03939 24.0703 1.42846 23.9625L7.41908 22.2984C8.10346 22.1063 8.72689 21.7453 9.23314 21.2391L19.3113 11.1516L12.8472 4.6875Z" fill="black"/>
</svg>
