<svg width="30" height="30" viewBox="0 0 30 30" fill="none" xmlns="http://www.w3.org/2000/svg">
<path d="M9.15402 1.24432L8.57143 2.72727H2.14286C0.957589 2.72727 0 3.53977 0 4.54545C0 5.55114 0.957589 6.36364 2.14286 6.36364H27.8571C29.0424 6.36364 30 5.55114 30 4.54545C30 3.53977 29.0424 2.72727 27.8571 2.72727H21.4286L20.846 1.24432C20.5513 0.5 19.7344 0 18.8103 0H11.1897C10.2656 0 9.44866 0.5 9.15402 1.24432ZM27.8571 9.09091H2.14286L3.5558 27.4489C3.66295 28.8864 5.0692 30 6.76339 30H23.2366C24.9308 30 26.3371 28.8864 26.4442 27.4489L27.8571 9.09091Z" fill="black"/>
</svg>
