<svg width="46" height="46" viewBox="0 0 46 46" fill="none" xmlns="http://www.w3.org/2000/svg">
<g filter="url(#filter0_d_102_94)">
<path d="M23.0042 0C21.5026 0 20.2894 1.06133 20.2894 2.375V2.6125C14.096 3.71094 9.42978 8.50547 9.42978 14.25V15.8605C9.42978 19.4305 8.0384 22.8965 5.49319 25.6871L4.66176 26.5926C4.22907 27.0602 4 27.6391 4 28.2402C4 29.6949 5.34896 30.875 7.01183 30.875H38.9882C40.651 30.875 42 29.6949 42 28.2402C42 27.6391 41.7709 27.0602 41.3382 26.5926L40.5068 25.6871C37.9701 22.8965 36.5787 19.4305 36.5787 15.8605V14.25C36.5787 8.50547 31.9125 3.71094 25.7191 2.6125V2.375C25.7191 1.06133 24.5059 0 23.0042 0ZM17.7441 34.4375C18.3465 36.4859 20.476 38 23.0042 38C25.5325 38 27.662 36.4859 28.2643 34.4375H17.7441Z" fill="black"/>
<path d="M27.5293 34.9375C26.7803 36.4213 25.0588 37.5 23.0039 37.5C20.949 37.4999 19.2274 36.4214 18.4785 34.9375H27.5293ZM23.0039 0.5C24.2944 0.5 25.2188 1.39819 25.2188 2.375V3.03125L25.6318 3.10449C31.6391 4.16993 36.0791 8.79775 36.0791 14.25V15.8604C36.0791 19.5629 37.5221 23.1471 40.1367 26.0234L40.1387 26.0254L40.9697 26.9307L40.9717 26.9326C41.3221 27.3115 41.5 27.7703 41.5 28.2402C41.5 29.358 40.4399 30.3749 38.9883 30.375H7.01172C5.56013 30.3749 4.5 29.358 4.5 28.2402C4.5 27.7703 4.67786 27.3115 5.02832 26.9326L5.03027 26.9307L5.86133 26.0254L5.8623 26.0244C8.4859 23.1478 9.92969 19.563 9.92969 15.8604V14.25C9.92969 8.79775 14.3697 4.16993 20.377 3.10449L20.7891 3.03125V2.375C20.7891 1.39828 21.7136 0.500156 23.0039 0.5Z" stroke="black"/>
</g>
<defs>
<filter id="filter0_d_102_94" x="0" y="0" width="46" height="46" filterUnits="userSpaceOnUse" color-interpolation-filters="sRGB">
<feFlood flood-opacity="0" result="BackgroundImageFix"/>
<feColorMatrix in="SourceAlpha" type="matrix" values="0 0 0 0 0 0 0 0 0 0 0 0 0 0 0 0 0 0 127 0" result="hardAlpha"/>
<feOffset dy="4"/>
<feGaussianBlur stdDeviation="2"/>
<feComposite in2="hardAlpha" operator="out"/>
<feColorMatrix type="matrix" values="0 0 0 0 0 0 0 0 0 0 0 0 0 0 0 0 0 0 0.25 0"/>
<feBlend mode="normal" in2="BackgroundImageFix" result="effect1_dropShadow_102_94"/>
<feBlend mode="normal" in="SourceGraphic" in2="effect1_dropShadow_102_94" result="shape"/>
</filter>
</defs>
</svg>
