<svg width="30" height="30" viewBox="0 0 30 30" fill="none" xmlns="http://www.w3.org/2000/svg">
<path d="M27.1875 15C27.1875 21.7324 21.7324 27.1875 15 27.1875C8.26758 27.1875 2.8125 21.7324 2.8125 15C2.8125 8.26758 8.26758 2.8125 15 2.8125C21.7324 2.8125 27.1875 8.26758 27.1875 15ZM0 15C0 23.2852 6.71484 30 15 30C23.2852 30 30 23.2852 30 15C30 6.71484 23.2852 0 15 0C6.71484 0 0 6.71484 0 15ZM13.5938 7.03125V15C13.5938 15.4688 13.8281 15.9082 14.2207 16.1719L19.8457 19.9219C20.4902 20.3555 21.3633 20.1797 21.7969 19.5293C22.2305 18.8789 22.0547 18.0117 21.4043 17.5781L16.4062 14.25V7.03125C16.4062 6.25195 15.7793 5.625 15 5.625C14.2207 5.625 13.5938 6.25195 13.5938 7.03125Z" fill="black"/>
</svg>
