<svg width="95" height="95" viewBox="0 0 95 95" fill="none" xmlns="http://www.w3.org/2000/svg">
<path d="M74.0332 71.2871C69.9326 64.1621 62.2324 59.375 53.4375 59.375H41.5625C32.7676 59.375 25.0674 64.1621 20.9668 71.2871C27.498 78.5605 36.9609 83.125 47.5 83.125C58.0391 83.125 67.502 78.542 74.0332 71.2871ZM0 47.5C0 21.2637 21.2637 0 47.5 0C73.7363 0 95 21.2637 95 47.5C95 73.7363 73.7363 95 47.5 95C21.2637 95 0 73.7363 0 47.5ZM47.5 50.4688C54.8848 50.4688 60.8594 44.4941 60.8594 37.1094C60.8594 29.7246 54.8848 23.75 47.5 23.75C40.1152 23.75 34.1406 29.7246 34.1406 37.1094C34.1406 44.4941 40.1152 50.4688 47.5 50.4688Z" fill="black"/>
</svg>
